# xmcd CD database file
#
# Track frame offsets:
#	150
#	27112
#	49138
#	84962
#	119020
#	135236
#	166497
#	188497
#	198941
#	211515
#	234112
#	262964
#	291758
#	308204
#	330402
#
# Disc length: 4580 seconds
#
# Revision: 0
# Processed by: cddbd v1.5.1PL0 Copyright (c) Steve Scherf et al.
# Submitted via: CDex 1.51
#
DISCID=bb11e20f
DTITLE=Blue Note by Bobby Flores - Romanticus Extremus
DYEAR=2005
DGENRE=Jazz
TTITLE0=What's Wrong With This Picture-Van Morrison
TTITLE1=Million To One-Al Green
TTITLE2=I'm Old Fashioned-John Coltrane
TTITLE3=Half Nelson-Miles Davis
TTITLE4=Miss You-Dinah Washington
TTITLE5=The Nearness Of You-Johnny Hartman
TTITLE6=Travelling Miles-Casandra Wilson
TTITLE7=My Funny Valentine-Chet Baker
TTITLE8=Autumn Leaves-Coleman Hawkins
TTITLE9=Fell Like Making Love-Marleena Shaw
TTITLE10=Next Time Not-Blue Note All Stars
TTITLE11=Nancy-Grant Green
TTITLE12=At Last-Low Rawls and Diane Reeves
TTITLE13=Solitude-Louis Armstrong
TTITLE14=Dreamy-Sarah Vaughan
EXTD=YEAR: 2005
EXTT0=
EXTT1=
EXTT2=
EXTT3=
EXTT4=
EXTT5=
EXTT6=
EXTT7=
EXTT8=
EXTT9=
EXTT10=
EXTT11=
EXTT12=
EXTT13=
EXTT14=
PLAYORDER=
